<?xml version="1.0" encoding="utf-8"?>
<!-- Generator: Adobe Illustrator 25.4.1, SVG Export Plug-In . SVG Version: 6.00 Build 0)  -->
<svg version="1.1" id="Color" xmlns="http://www.w3.org/2000/svg" xmlns:xlink="http://www.w3.org/1999/xlink" x="0px" y="0px"
	 viewBox="0 0 864 352.34" style="enable-background:new 0 0 864 352.34;" xml:space="preserve">
<style type="text/css">
	.st0{fill:#61B222;}
	.st1{fill:#2868AD;}
	.st2{fill:#142D41;}
</style>
<g>
	<path class="st0" d="M323.89,162.67v25.71h-22.25v-80.38h54.45c25.39,0,33.27,11.13,33.27,26.68v1.19
		c0,15.23-8.1,26.79-33.27,26.79H323.89z M323.89,144.74h30.57c8.1,0,11.78-3.46,11.78-9.18v-0.43c0-5.62-3.67-9.18-11.78-9.18
		h-30.57V144.74z"/>
	<path class="st0" d="M459.89,173.48h-43.43l-6.48,14.91h-22.36l35.65-80.38h29.82l37.27,80.38h-23.88L459.89,173.48z
		 M437.86,124.21l-14.15,32.73h28.74L437.86,124.21z"/>
	<path class="st0" d="M512.39,126.37h-31.11v-18.37h84.37v18.37h-31.11v62.01h-22.15V126.37z"/>
	<path class="st0" d="M620.31,189.57c-36.73,0-46.45-23.55-46.45-39.97v-3.24c0-16.75,9.72-39.54,46.45-39.54h4.97
		c33.71,0,44.94,16.53,44.94,31.76v0.22h-22.9c-0.32-2.27-3.24-13.61-24.52-13.61c-19.66,0-25.82,11.02-25.82,21.82v1.51
		c0,9.94,6.27,22.58,25.93,22.58c21.39,0,24.09-11.67,24.42-14.15h22.9v0.32c0,14.69-10.8,32.3-44.94,32.3H620.31z"/>
	<path class="st0" d="M686.85,108.01h22.25v29.82h44.83v-29.82h22.25v80.38h-22.25v-32.3H709.1v32.3h-22.25V108.01z"/>
	<path class="st1" d="M356.08,203.69h18.81l16.27,34.6l16.75-34.6h17.64v51.08h-13.8v-33.43l-15.51,33.43h-11.05l-15.51-33.43v33.43
		h-13.59V203.69z"/>
	<path class="st1" d="M476.54,236.09l-25.33-32.4h17.5l15.31,20.25l15.31-20.25h15.79l-24.43,32.47v18.6h-14.14V236.09z"/>
	<path class="st1" d="M594.26,238.43v16.34h-14.14v-51.08h34.59c16.13,0,21.14,7.07,21.14,16.96v0.76c0,9.68-5.15,17.02-21.14,17.02
		H594.26z M594.26,227.03h19.42c5.15,0,7.48-2.2,7.48-5.83v-0.27c0-3.57-2.33-5.84-7.48-5.84h-19.42V227.03z"/>
	<path class="st1" d="M692.49,255.52c-23.34,0-29.51-14.96-29.51-25.4v-2.06c0-10.64,6.18-25.13,29.51-25.13h3.16
		c21.41,0,28.55,10.5,28.55,20.18v0.14h-14.55c-0.21-1.44-2.06-8.65-15.58-8.65c-12.49,0-16.4,7-16.4,13.87v0.96
		c0,6.32,3.98,14.35,16.47,14.35c13.59,0,15.31-7.42,15.51-8.99h14.55v0.21c0,9.34-6.86,20.53-28.55,20.53H692.49z"/>
</g>
<g>
	<g>
		<g>
			<g>
				<path class="st1" d="M140.41,216.55c-0.84-1.04-1.9-2.53-3.15-4.6c-2.63-4.11-5.02-8.62-7.02-13.57c-1.79-4.44-3.42-9-4.9-13.52
					c-4.27-12.13-9.15-28.49-14.45-50.58c-1.39-5.79-2.62-11.48-3.17-14.08c-12.47,15.24-19.96,34.71-19.96,55.89
					c0,9.37,1.47,18.39,4.18,26.87l50.06,15.7C141.46,217.97,140.93,217.27,140.41,216.55z"/>
			</g>
			<g>
				<path class="st1" d="M229.39,178.04c-1.73,6.4-3.79,13.01-6.22,19.39c-6.17,16.21-16.96,28.02-26.61,35.96
					c-4.94,4.2-10.44,8.37-16.66,13.35c-3.42,3.09-11.21,10.27-18.05,16.58c4.66,0.76,9.44,1.17,14.32,1.17
					c25.88,0,49.2-11.18,65.38-28.96C237.52,216.4,230.68,183.94,229.39,178.04z"/>
			</g>
			<g>
				<path class="st1" d="M231.05,171.57l13.53,60.45c12.49-15.25,19.99-34.73,19.99-55.93c0-9.33-1.46-18.32-4.15-26.77l-23.68-7.42
					C236,147.27,234.22,158.57,231.05,171.57z"/>
			</g>
			<g>
				<path class="st1" d="M195.15,89.73l-28.48,26.19l0.29,0.09l12.21-4.74l52.86,25.11l26.81,8.39
					C248.37,117.19,224.46,96.17,195.15,89.73z"/>
			</g>
			<g>
				<path class="st1" d="M115.87,139.16l39.39-17.85l35.31-32.46c-4.69-0.77-9.5-1.18-14.4-1.18c-25.86,0-49.16,11.16-65.34,28.92
					L115.87,139.16z"/>
			</g>
			<g>
				<path class="st1" d="M157.47,262.5l18.04-16.59c-3.51-1.67-16.84-8.53-29.03-21.93l-52.98-16.57
					C104.01,235.07,128.03,256.13,157.47,262.5z"/>
			</g>
		</g>
		<path class="st0" d="M179.13,173.91c0,0-12.02-12.48-12.86-13.73c-1.49,2.05-6.53,8.02-8.62,10.32
			c5.2,3.66,20.88,18.58,25.22,22.73c11.39-26.55,21.92-41.14,36.17-50.92l-9.51-10.75C194.21,142.31,184.87,161.59,179.13,173.91z"
			/>
	</g>
	<path class="st2" d="M209.69,198.74c0,0,0-0.01,0-0.01v-40.35c0-0.75-0.49-1.44-1.1-1.54l-2.85-0.49
		c-0.86,1.01-1.71,2.06-2.55,3.14l2.98,0.45v34.22l-54.37,3.01v-45.41l34.29,5.16c0.68-1.18,1.39-2.38,2.13-3.58l-40.77-7
		l-0.04-0.02c-1.98-0.33-3.54,1.44-3.54,2.86v56.32c0,1.04,0.95,1.8,2.1,1.7c0,0,13.31-1.2,28.37-2.56l-0.42,4.62
		c-4.56,0.85-7.84,2.01-7.86,3.09c-0.04,1.74,8.31,2.14,16.98,1.09c7.26-0.88,12.34-2.51,12.37-3.77c0.02-1.04-3.39-1.7-8.63-1.65
		l0.16-4.52c10.69-0.97,20.65-1.87,20.87-1.9C209.8,201.34,209.69,198.82,209.69,198.74z"/>
</g>
</svg>
